<?xml version="1.0" encoding="UTF-8" standalone="no"?>
<!-- Created with Inkscape (http://www.inkscape.org/) -->

<svg
   width="1000"
   height="1000"
   viewBox="0 0 1000 1000"
   version="1.1"
   id="svg1"
   inkscape:version="1.4.2 (ebf0e940d0, 2025-05-08)"
   sodipodi:docname="symbol-circular.svg"
   inkscape:export-filename="symbol-circular.png"
   inkscape:export-xdpi="96"
   inkscape:export-ydpi="96"
   xmlns:inkscape="http://www.inkscape.org/namespaces/inkscape"
   xmlns:sodipodi="http://sodipodi.sourceforge.net/DTD/sodipodi-0.dtd"
   xmlns="http://www.w3.org/2000/svg"
   xmlns:svg="http://www.w3.org/2000/svg"
   xmlns:rdf="http://www.w3.org/1999/02/22-rdf-syntax-ns#"
   xmlns:cc="http://creativecommons.org/ns#"
   xmlns:dc="http://purl.org/dc/elements/1.1/">
  <title
     id="title1">SIMBRA</title>
  <sodipodi:namedview
     id="namedview1"
     pagecolor="#ffffff"
     bordercolor="#000000"
     borderopacity="0.25"
     inkscape:showpageshadow="2"
     inkscape:pageopacity="0.0"
     inkscape:pagecheckerboard="0"
     inkscape:deskcolor="#d1d1d1"
     inkscape:document-units="px"
     inkscape:zoom="0.49953305"
     inkscape:cx="748.69921"
     inkscape:cy="567.53002"
     inkscape:window-width="1920"
     inkscape:window-height="1011"
     inkscape:window-x="0"
     inkscape:window-y="0"
     inkscape:window-maximized="1"
     inkscape:current-layer="layer5"
     showguides="true"
     guidecolor="#ff00ff"
     guideopacity="1"
     showgrid="true"
     inkscape:lockguides="false">
    <inkscape:grid
       id="grid1"
       units="px"
       originx="0"
       originy="0"
       spacingx="10"
       spacingy="10"
       empcolor="#00ffff"
       empopacity="0.50196078"
       color="#00ffff"
       opacity="0.25098039"
       empspacing="5"
       enabled="true"
       visible="false" />
  </sodipodi:namedview>
  <defs
     id="defs1">
    <inkscape:path-effect
       effect="simplify"
       id="path-effect4"
       is_visible="true"
       lpeversion="1.3"
       threshold="7.5"
       steps="5"
       smooth_angles="0"
       helper_size="10"
       simplify_individual_paths="false"
       simplify_just_coalesce="false" />
    <inkscape:path-effect
       effect="simplify"
       id="path-effect3"
       is_visible="true"
       lpeversion="1.3"
       threshold="5"
       steps="1"
       smooth_angles="360"
       helper_size="10"
       simplify_individual_paths="false"
       simplify_just_coalesce="false" />
    <inkscape:path-effect
       effect="simplify"
       id="path-effect4-7"
       is_visible="true"
       lpeversion="1.3"
       threshold="7.5"
       steps="5"
       smooth_angles="0"
       helper_size="10"
       simplify_individual_paths="false"
       simplify_just_coalesce="false" />
    <inkscape:path-effect
       effect="simplify"
       id="path-effect4-5"
       is_visible="true"
       lpeversion="1.3"
       threshold="10"
       steps="5"
       smooth_angles="0"
       helper_size="0"
       simplify_individual_paths="false"
       simplify_just_coalesce="false" />
    <inkscape:path-effect
       effect="roughen"
       id="path-effect10"
       is_visible="true"
       lpeversion="1.2"
       global_randomize="1;1"
       displace_x="5;1"
       displace_y="5;1"
       method="size"
       max_segment_size="35"
       segments="1"
       handles="retract"
       shift_nodes="true"
       fixed_displacement="false"
       spray_tool_friendly="false" />
    <inkscape:path-effect
       effect="simplify"
       id="path-effect4-2"
       is_visible="true"
       lpeversion="1.3"
       threshold="10"
       steps="5"
       smooth_angles="0"
       helper_size="0"
       simplify_individual_paths="false"
       simplify_just_coalesce="false" />
    <inkscape:path-effect
       effect="roughen"
       id="path-effect10-7"
       is_visible="true"
       lpeversion="1.2"
       global_randomize="1;1"
       displace_x="5;1"
       displace_y="5;1"
       method="size"
       max_segment_size="35"
       segments="1"
       handles="retract"
       shift_nodes="true"
       fixed_displacement="false"
       spray_tool_friendly="false" />
  </defs>
  <g
     inkscape:label="Background"
     inkscape:groupmode="layer"
     id="layer1"
     style="display:inline">
    <rect
       style="display:none;fill:#ffffff;stroke-width:9.94747;stroke-linecap:square;stroke-miterlimit:3"
       id="rect1-6"
       width="1000"
       height="1000"
       x="0"
       y="0"
       inkscape:label="White"
       sodipodi:insensitive="true" />
    <rect
       style="display:none;fill:#3c3c3c;stroke-width:9.94747;stroke-linecap:square;stroke-miterlimit:3"
       id="rect1-6-6"
       width="1000"
       height="1000"
       x="0"
       y="0"
       inkscape:label="Gray"
       sodipodi:insensitive="true" />
    <rect
       style="display:none;fill:#ff0000;stroke-width:9.94747;stroke-linecap:square;stroke-miterlimit:3"
       id="rect1-6-1"
       width="1000"
       height="1000"
       x="0"
       y="0"
       inkscape:label="Red"
       sodipodi:insensitive="true" />
    <rect
       style="display:none;fill:#183eff;stroke-width:9.94747;stroke-linecap:square;stroke-miterlimit:3"
       id="rect1-6-7"
       width="1000"
       height="1000"
       x="0"
       y="0"
       inkscape:label="Blue"
       sodipodi:insensitive="true" />
    <rect
       style="display:inline;fill:#ffd000;stroke-width:9.94747;stroke-linecap:square;stroke-miterlimit:3"
       id="rect1-6-3"
       width="1000"
       height="1000"
       x="0"
       y="0"
       inkscape:label="Yellow" />
    <rect
       style="display:none;fill:#00d000;stroke-width:9.94747;stroke-linecap:square;stroke-miterlimit:3"
       id="rect1-6-2"
       width="1000"
       height="1000"
       x="0"
       y="0"
       inkscape:label="Green"
       sodipodi:insensitive="true" />
  </g>
  <g
     inkscape:groupmode="layer"
     id="layer5"
     inkscape:label="Graphics"
     style="display:inline">
    <g
       id="path24-9"
       inkscape:label="Brazil"
       style="opacity:1">
      <path
         style="baseline-shift:baseline;display:inline;overflow:visible;vector-effect:none;fill:#183eff;stroke-linecap:square;enable-background:accumulate;stop-color:#000000;stop-opacity:1"
         d="m 445.07066,829.37878 14.61313,15.57159 29.21039,16.09084 20.07474,15.8158 10.72338,11.78314 5.76163,9.30391 21.91223,-25.6172 21.50691,-25.74939 17.37094,-23.76262 19.35223,-21.09995 2.65878,-32.70574 9.52296,-30.51198 25.56599,-18.84334 27.91613,-14.6486 32.01189,-10.0841 34.19156,-6.99292 17.37233,-26.33475 15.51292,-28.29933 9.63772,-28.16943 12.23983,-28.59721 -1.55097,-32.84627 -1.32313,-25.85005 18.45347,-27.53629 20.48422,-27.11272 16.42601,-20.58039 16.09531,-20.86918 7.89226,-25.6486 -3.25135,-29.73712 -16.47038,-23.43626 -24.751,-4.93163 -19.59293,-14.1199 -19.86183,-18.70111 -19.44379,-4.8019 -25.94199,-0.9338 -22.66451,-5.75106 -20.92964,-3.67419 -18.22982,-18.08387 -25.92479,-10.21335 -32.41722,-8.86139 -27.90317,-10.46118 -8.52194,-28.56948 -14.78235,-13.93764 -4.85877,-15.82667 -8.78252,-21.35793 -11.82944,7.7712 -18.41978,22.72634 -30.12727,3.42447 -29.60708,-0.15543 -28.9139,9.93147 -23.04135,5.95658 -17.93383,-9.98338 -0.58206,-29.08351 -3.11721,-27.97648 -19.8947,7.98955 -22.78672,5.44799 -26.06546,7.25506 -20.11328,-1.92136 9.4313,19.71078 9.351,18.76999 -30.40174,20.73051 -28.82244,-4.03407 -11.77172,-15.43803 -16.13092,1.75073 -23.86701,5.48209 1.62744,16.59113 -11.87738,12.34054 6.13048,15.62029 4.35507,34.22496 -11.45605,30.18689 -30.86784,11.25347 -25.79984,18.44006 -10.49472,32.04146 5.82865,30.57893 12.21138,17.70972 22.05639,10.97361 16.28513,-1.5098 1.20105,17.44553 30.28652,0.9542 30.65094,-8.15627 27.68428,-11.95273 8.87829,20.06814 15.72993,26.18495 33.41467,13.50103 28.53413,11.88926 18.07491,22.90078 5.86109,27.13525 26.90814,6.94609 11.42293,19.02637 7.66772,18.32748 -7.00696,32.03572 5.9483,35.20102 22.05779,7.80283 19.31549,22.04589 13.72233,14.57498 10.06844,16.46436 5.90937,21.05235 2.14721,23.59969 -20.91252,12.4097 -19.46838,10.00876 -15.88405,20.06356 z"
         id="path5" />
      <path
         style="baseline-shift:baseline;display:inline;overflow:visible;vector-effect:none;stroke-linecap:square;enable-background:accumulate;stop-color:#000000;stop-opacity:1"
         d="m 393.9707,140 -24.19726,9.71875 -22.58594,5.39844 -25.46484,7.08789 -25.99805,-2.48242 12.29492,25.69531 7.91016,15.88086 -26.51758,18.08203 -25.87109,-3.62109 -12.11915,-15.89258 -18.44531,2.00195 -27.2832,6.26563 1.78125,18.14648 -12.34375,12.82617 6.83594,17.41602 4.17773,32.83984 -10.51758,27.7168 -29.74023,10.84179 -27.21094,19.44922 -11.17578,34.1211 6.15625,32.29687 13.20508,19.15235 23.87109,11.87695 13.53516,-1.25391 1.16992,16.99805 34.21094,1.07812 31.44726,-8.36718 24.53907,-10.59571 7.47656,16.89649 16.49219,27.45508 34.55468,13.96289 27.6211,11.50781 16.9375,21.46094 6.16601,28.54101 27.65625,7.13867 10.49805,17.48438 7.10742,16.99023 -6.91016,31.58985 6.43555,38.08203 23.20899,8.20898 18.71679,21.36133 13.50196,14.34375 9.59765,15.69141 5.67578,20.22461 1.90235,20.91211 -18.78711,11.14843 -20.08594,10.32618 -16.6543,21.03711 -6.13476,13.04296 16.7539,17.85352 29.45899,16.22656 19.58984,15.43555 10.28516,11.29883 8.26953,13.35742 25.25,-29.51758 21.59766,-25.85937 17.32031,-23.69336 20.07812,-21.89063 2.72852,-33.57031 9.03516,-28.94727 24.35156,-17.94922 27.37109,-14.36132 31.50781,-9.92578 35.51954,-7.26368 18.30859,-27.7539 15.74219,-28.7168 9.69531,-28.33984 12.52344,-29.25782 -1.5918,-33.71093 -1.25977,-24.61914 17.70313,-26.41797 20.39062,-26.98828 16.41407,-20.56446 16.52734,-21.42968 8.31836,-27.03321 -3.43945,-31.45898 -17.88282,-25.44727 -25.42187,-5.06445 -18.73633,-13.50195 -20.39648,-19.20508 -20.76953,-5.13086 -25.93165,-0.93164 -22.4121,-5.6875 -19.91407,-3.4961 -17.94531,-17.80078 -26.82812,-10.57031 -32.44727,-8.86914 -26.00586,-9.75 -8.27734,-27.75195 -14.79493,-13.94922 -4.61914,-15.04688 -10.57031,-25.70508 -16.09765,10.57618 -17.82227,21.99023 -28.39063,3.22656 -30.01953,-0.15625 -29.375,10.08985 -21.45507,5.54492 -14.75391,-8.21289 -0.54102,-27.10742 z m -6.33593,10.59375 2.55468,22.92383 0.62305,31.05859 21.11328,11.75391 24.62695,-6.36719 28.45313,-9.77344 29.19531,0.1543 31.86524,-3.62305 19.01562,-23.46093 7.56055,-4.96875 6.99609,17.01367 5.09766,16.60547 14.77148,13.92578 8.76563,29.38672 29.80078,11.17382 32.38672,8.85157 25.02148,9.85742 18.51563,18.36719 21.94531,3.85351 22.91406,5.81445 25.95508,0.9336 18.11719,4.47461 19.32617,18.19726 20.44922,14.73633 24.08008,4.79883 15.05859,21.42773 3.0625,28.01368 -7.46484,24.26562 -15.66407,20.30859 -16.4375,20.59375 -20.57812,27.23633 -19.20313,28.65625 1.38672,27.08203 1.50977,31.98047 -11.95703,27.9375 -9.57813,27.99805 -15.28515,27.88281 -16.43555,24.91602 -32.86524,6.7207 -32.51367,10.24219 -28.46289,14.93555 -26.7793,19.73828 -10.01171,32.07617 -2.58789,31.8418 -18.62696,20.30859 -17.42187,23.83203 -21.41602,25.64063 -18.57617,21.71679 -3.25195,-5.25195 -11.16211,-12.26563 -20.5586,-16.19726 -28.96093,-15.95313 -12.47266,-13.29297 3.60742,-7.67187 15.11328,-19.0918 18.85157,-9.6914 23.0371,-13.66993 -2.39257,-26.2871 -6.14063,-21.88086 -10.54101,-17.23633 -13.94141,-14.80664 -19.91406,-22.73047 -20.90821,-7.39649 -5.46093,-32.32031 7.10351,-32.48047 -8.22656,-19.66601 -12.34961,-20.56836 -26.1582,-6.75196 -5.5586,-25.73046 -19.21093,-24.33985 -29.44727,-12.27148 -32.27539,-13.03906 -14.96484,-24.91407 -10.28321,-23.24023 -30.82812,13.31055 -29.85547,7.94335 -26.36133,-0.83007 -1.23242,-17.89063 -19.03516,1.76367 -20.24218,-10.07031 -11.2168,-16.26758 -5.50195,-28.85937 9.81445,-29.96289 24.38867,-17.43164 31.99609,-11.66407 12.39454,-32.6582 -4.53321,-35.60937 -5.42383,-13.82422 11.41016,-11.85547 -1.47461,-15.03516 20.45117,-4.69726 13.81641,-1.5 11.42578,14.98242 31.77344,4.44726 34.28515,-23.3789 -10.79101,-21.65821 -6.56641,-13.72656 14.22656,1.35938 26.66602,-7.42188 22.98828,-5.49609 z"
         id="path6" />
    </g>
    <g
       id="g4"
       inkscape:label="Links">
      <path
         style="baseline-shift:baseline;display:inline;overflow:visible;vector-effect:none;fill:#ffffff;stroke-width:0.995933;stroke-linecap:square;stroke-miterlimit:0;enable-background:accumulate;stop-color:#000000"
         d="m 741.35554,394.39478 v 3.73475 c 0,61.99684 -6.25921,121.46126 -21.57401,164.95532 -7.6574,21.74701 -17.57059,39.4547 -29.8352,51.57066 -12.26461,12.11594 -26.73004,18.76322 -44.44935,18.76322 h -3.73475 v 7.46949 h 3.73475 c 19.62818,0 36.28566,-7.66926 49.69745,-20.91848 13.41179,-13.24922 23.72849,-31.95533 31.63255,-54.40285 15.8081,-44.89501 21.99806,-104.94256 21.99806,-167.43736 v -3.73475 z"
         id="path12"
         inkscape:label="Link Segment 3" />
      <path
         style="baseline-shift:baseline;display:inline;overflow:visible;vector-effect:none;fill:#ffffff;stroke-width:0.995933;stroke-linecap:square;stroke-miterlimit:0;enable-background:accumulate;stop-color:#000000"
         d="m 296.92039,339.61846 -3.73475,3.73475 c 0,12.86414 7.99747,28.09355 20.36022,44.49798 12.36276,16.40444 29.33219,33.8267 48.18216,49.84917 36.58959,31.10116 79.74106,57.12337 111.56006,58.63362 31.72329,118.19035 58.92151,207.01329 58.92151,300.16879 v 3.73475 h 7.4695 v -3.73475 c 0,-95.34345 -27.87798,-185.28414 -59.88242,-304.72635 l -3.60832,-2.76799 c -27.69939,0 -72.62956,-25.55387 -109.62462,-56.99966 -18.49752,-15.7229 -35.14083,-32.84706 -47.05394,-48.65484 -10.42187,-13.82902 -17.03833,-26.77065 -18.53175,-36.18427 136.20337,0.87541 220.97879,44.89847 272.00645,102.60833 51.54272,58.29237 68.77774,130.86711 68.77774,187.37549 v 3.73474 h 7.4695 v -3.73474 c 0,-58.02393 -17.62264,-132.34933 -70.6529,-192.32403 C 525.54858,384.85476 437.15133,339.61846 296.92039,339.61846 Z"
         id="path11"
         inkscape:label="Link Segment 2" />
      <path
         style="baseline-shift:baseline;display:inline;overflow:visible;vector-effect:none;fill:#ffffff;stroke-width:0.995933;stroke-linecap:square;stroke-miterlimit:3;enable-background:accumulate;stop-color:#000000"
         d="m 500.1491,274.64938 c -65.24086,0.2853 -132.48544,23.54722 -205.09608,65.46899 l -3.23484,1.86738 3.73475,6.46968 3.23484,-1.86738 c 82.19197,-47.45355 156.5488,-70.28154 228.47717,-63.20674 71.53746,7.03635 141.06919,43.66431 213.99139,116.23045 -0.53125,28.9335 -16.01923,48.57044 -40.06296,62.59595 -24.46667,14.27223 -57.66878,22.19346 -90.9995,26.20549 -66.66144,8.02406 -133.59314,0.61857 -133.59314,0.61857 l -4.14713,-0.46101 v 4.17242 c 0,4.87592 1.9938,10.24783 5.24421,16.50487 3.25041,6.25703 7.86476,13.31917 13.55403,20.90486 11.37853,15.17138 27.06313,32.41337 44.64192,48.73654 17.57879,16.32316 37.03486,31.71378 56.01735,43.10327 11.42617,6.85571 22.65622,12.26154 33.31318,15.51284 -8.61605,3.3991 -16.83616,8.71568 -24.51318,15.43307 -13.5075,11.81905 -25.52204,27.83454 -35.62795,45.20408 -20.21183,34.73907 -32.87357,74.56833 -32.87357,98.36006 v 3.73475 h 7.4695 v -3.73475 c 0,-21.02525 12.23658,-60.87064 31.86208,-94.60197 9.81275,-16.86567 21.45162,-32.28432 34.08736,-43.3406 12.63574,-11.05628 26.1225,-17.67198 39.86845,-17.67198 v -7.46949 c -13.74595,0 -31.37718,-6.81053 -49.74219,-17.82954 -18.36501,-11.019 -37.50134,-26.12883 -54.78021,-42.17349 -17.27887,-16.04466 -32.71718,-33.03787 -43.74714,-47.74449 -5.51498,-7.3533 -9.92628,-14.14085 -12.90045,-19.86614 -1.81867,-3.50094 -2.86987,-6.39976 -3.55968,-8.8992 12.26165,1.20593 69.81457,6.20512 130.31746,-1.07763 33.89476,-4.07993 67.91814,-12.03138 93.87058,-27.1703 25.95244,-15.13893 43.86969,-38.06099 43.86969,-70.52841 v -1.54641 l -1.0932,-1.09514 C 673.5809,321.33702 601.98175,283.22396 527.99632,275.94683 c -9.24817,-0.90965 -18.52709,-1.3382 -27.84722,-1.29745 z"
         id="path2"
         inkscape:label="Link Segment 1" />
    </g>
    <g
       id="g3"
       inkscape:label="Arrow">
      <path
         id="path1-2-6"
         d="m 532.08652,808.03257 27.6343,26.73706 -13.13495,-80.84941 -51.79988,63.45019 z"
         style="display:inline;fill:#ff0000;fill-opacity:1;fill-rule:nonzero;stroke:none;stroke-width:0.099593"
         sodipodi:nodetypes="ccccc"
         inkscape:transform-center-x="-3.2939116"
         inkscape:transform-center-y="-5.4745013"
         inkscape:label="South" />
      <path
         id="path1-2-1"
         d="m 657.30121,646.18358 36.97211,-10.56347 -76.5851,-29.04952 29.04953,76.58512 z"
         style="display:inline;fill:#ff0000;fill-opacity:1;fill-rule:nonzero;stroke:none;stroke-width:0.099593"
         sodipodi:nodetypes="ccccc"
         inkscape:transform-center-x="-9.9087516"
         inkscape:transform-center-y="-4.2466063"
         inkscape:label="Southeast" />
      <path
         id="path1-2-1-4-1"
         d="m 462.50071,493.89134 -9.33781,37.30053 63.45016,-51.79988 -80.84942,-13.13495 z"
         style="display:inline;fill:#ff0000;fill-opacity:1;fill-rule:nonzero;stroke:none;stroke-width:0.099593"
         sodipodi:nodetypes="ccccc"
         inkscape:transform-center-x="-10.655707"
         inkscape:transform-center-y="16.042684"
         inkscape:label="Central-West" />
      <path
         id="path1-2-1-4"
         d="m 754.6367,397.12992 9.33781,-37.30053 -63.45017,51.7999 80.84943,13.13492 z"
         style="display:inline;fill:#ff0000;fill-opacity:1;fill-rule:nonzero;stroke:none;stroke-width:0.995933;stroke-dasharray:none"
         sodipodi:nodetypes="ccccc"
         inkscape:transform-center-x="10.655708"
         inkscape:transform-center-y="-16.042681"
         inkscape:label="Northeast" />
      <path
         id="path1-2"
         d="m 281.80457,337.85834 -26.73706,27.63429 80.84941,-13.13493 -63.4502,-51.79988 z"
         style="display:inline;fill:#ff0000;fill-opacity:1;fill-rule:nonzero;stroke:none;stroke-width:0.099593"
         sodipodi:nodetypes="ccccc"
         inkscape:transform-center-x="-5.474502"
         inkscape:transform-center-y="3.293909"
         inkscape:label="North" />
    </g>
  </g>
  <g
     inkscape:groupmode="layer"
     id="layer4"
     inkscape:label="Screen"
     sodipodi:insensitive="true"
     style="display:none">
    <circle
       style="fill:#141414;fill-opacity:0.503824;stroke-width:3.35506;stroke-linecap:square;stroke-miterlimit:3"
       id="path1"
       cx="500"
       cy="500"
       r="500"
       inkscape:label="Circle" />
  </g>
  <metadata
     id="metadata1">
    <rdf:RDF>
      <cc:Work
         rdf:about="">
        <cc:license
           rdf:resource="http://creativecommons.org/licenses/by-nc-sa/4.0/" />
        <dc:title>SIMBRA</dc:title>
      </cc:Work>
      <cc:License
         rdf:about="http://creativecommons.org/licenses/by-nc-sa/4.0/">
        <cc:permits
           rdf:resource="http://creativecommons.org/ns#Reproduction" />
        <cc:permits
           rdf:resource="http://creativecommons.org/ns#Distribution" />
        <cc:requires
           rdf:resource="http://creativecommons.org/ns#Notice" />
        <cc:requires
           rdf:resource="http://creativecommons.org/ns#Attribution" />
        <cc:prohibits
           rdf:resource="http://creativecommons.org/ns#CommercialUse" />
        <cc:permits
           rdf:resource="http://creativecommons.org/ns#DerivativeWorks" />
        <cc:requires
           rdf:resource="http://creativecommons.org/ns#ShareAlike" />
      </cc:License>
    </rdf:RDF>
  </metadata>
</svg>
